<?xml version="1.0" encoding="UTF-8" standalone="no"?>
<!DOCTYPE svg PUBLIC "-//W3C//DTD SVG 1.1//EN"
 "http://www.w3.org/Graphics/SVG/1.1/DTD/svg11.dtd">
<!-- Generated by graphviz version 2.40.1 (20161225.0304)
 -->
<!-- Title: fluxo Pages: 1 -->
<svg width="386pt" height="571pt"
 viewBox="0.00 0.00 386.00 570.80" xmlns="http://www.w3.org/2000/svg" xmlns:xlink="http://www.w3.org/1999/xlink">
<g id="graph0" class="graph" transform="scale(1 1) rotate(0) translate(4 566.8)">
<title>fluxo</title>
<polygon fill="#ffffff" stroke="transparent" points="-4,4 -4,-566.8 382,-566.8 382,4 -4,4"/>
<!-- A -->
<g id="node1" class="node">
<title>A</title>
<path fill="none" stroke="#000000" d="M266,-562.8C266,-562.8 110,-562.8 110,-562.8 104,-562.8 98,-556.8 98,-550.8 98,-550.8 98,-538.8 98,-538.8 98,-532.8 104,-526.8 110,-526.8 110,-526.8 266,-526.8 266,-526.8 272,-526.8 278,-532.8 278,-538.8 278,-538.8 278,-550.8 278,-550.8 278,-556.8 272,-562.8 266,-562.8"/>
<text text-anchor="middle" x="188" y="-548.1" font-family="Helvetica,sans-Serif" font-size="11.00" fill="#000000">1. Definição do tratamento</text>
<text text-anchor="middle" x="188" y="-534.9" font-family="Helvetica,sans-Serif" font-size="11.00" fill="#000000">(dummy; intensidade; regime)</text>
</g>
<!-- B -->
<g id="node2" class="node">
<title>B</title>
<path fill="none" stroke="#000000" d="M266,-489.8C266,-489.8 110,-489.8 110,-489.8 104,-489.8 98,-483.8 98,-477.8 98,-477.8 98,-465.8 98,-465.8 98,-459.8 104,-453.8 110,-453.8 110,-453.8 266,-453.8 266,-453.8 272,-453.8 278,-459.8 278,-465.8 278,-465.8 278,-477.8 278,-477.8 278,-483.8 272,-489.8 266,-489.8"/>
<text text-anchor="middle" x="188" y="-475.1" font-family="Helvetica,sans-Serif" font-size="11.00" fill="#000000">2. Preparação de dados</text>
<text text-anchor="middle" x="188" y="-461.9" font-family="Helvetica,sans-Serif" font-size="11.00" fill="#000000">(harmonização, metadados)</text>
</g>
<!-- A&#45;&gt;B -->
<g id="edge1" class="edge">
<title>A&#45;&gt;B</title>
<path fill="none" stroke="#000000" d="M188,-526.7551C188,-518.6828 188,-508.9764 188,-499.9817"/>
<polygon fill="#000000" stroke="#000000" points="191.5001,-499.8903 188,-489.8904 184.5001,-499.8904 191.5001,-499.8903"/>
</g>
<!-- C -->
<g id="node3" class="node">
<title>C</title>
<polygon fill="#ffffe0" stroke="#000000" points="188,-416.8 42.3394,-398.8 188,-380.8 333.6606,-398.8 188,-416.8"/>
<text text-anchor="middle" x="188" y="-395.5" font-family="Helvetica,sans-Serif" font-size="11.00" fill="#000000">3. Quantas unidades tratadas?</text>
</g>
<!-- B&#45;&gt;C -->
<g id="edge2" class="edge">
<title>B&#45;&gt;C</title>
<path fill="none" stroke="#000000" d="M188,-453.7551C188,-445.6828 188,-435.9764 188,-426.9817"/>
<polygon fill="#000000" stroke="#000000" points="191.5001,-426.8903 188,-416.8904 184.5001,-426.8904 191.5001,-426.8903"/>
</g>
<!-- D -->
<g id="node4" class="node">
<title>D</title>
<path fill="none" stroke="#000000" d="M168,-328C168,-328 12,-328 12,-328 6,-328 0,-322 0,-316 0,-316 0,-304 0,-304 0,-298 6,-292 12,-292 12,-292 168,-292 168,-292 174,-292 180,-298 180,-304 180,-304 180,-316 180,-316 180,-322 174,-328 168,-328"/>
<text text-anchor="middle" x="90" y="-313.3" font-family="Helvetica,sans-Serif" font-size="11.00" fill="#000000">Muitos tratados</text>
<text text-anchor="middle" x="90" y="-300.1" font-family="Helvetica,sans-Serif" font-size="11.00" fill="#000000">DiD escalonado</text>
</g>
<!-- C&#45;&gt;D -->
<g id="edge3" class="edge">
<title>C&#45;&gt;D</title>
<path fill="none" stroke="#000000" d="M170.4796,-382.9243C155.7747,-369.5999 134.5104,-350.3319 117.5322,-334.9475"/>
<polygon fill="#000000" stroke="#000000" points="119.8325,-332.3087 110.0719,-328.1876 115.1322,-337.496 119.8325,-332.3087"/>
<text text-anchor="middle" x="167.8352" y="-350.2" font-family="Times,serif" font-size="14.00" fill="#000000">Muitos</text>
</g>
<!-- E -->
<g id="node5" class="node">
<title>E</title>
<path fill="none" stroke="#000000" d="M366,-328C366,-328 210,-328 210,-328 204,-328 198,-322 198,-316 198,-316 198,-304 198,-304 198,-298 204,-292 210,-292 210,-292 366,-292 366,-292 372,-292 378,-298 378,-304 378,-304 378,-316 378,-316 378,-322 372,-328 366,-328"/>
<text text-anchor="middle" x="288" y="-313.3" font-family="Helvetica,sans-Serif" font-size="11.00" fill="#000000">Poucos tratados</text>
<text text-anchor="middle" x="288" y="-300.1" font-family="Helvetica,sans-Serif" font-size="11.00" fill="#000000">Synthetic Control</text>
</g>
<!-- C&#45;&gt;E -->
<g id="edge4" class="edge">
<title>C&#45;&gt;E</title>
<path fill="none" stroke="#000000" d="M205.878,-382.9243C220.883,-369.5999 242.5812,-350.3319 259.9059,-334.9475"/>
<polygon fill="#000000" stroke="#000000" points="262.365,-337.4447 267.5184,-328.1876 257.717,-332.2105 262.365,-337.4447"/>
<text text-anchor="middle" x="266.2209" y="-350.2" font-family="Times,serif" font-size="14.00" fill="#000000">Poucos</text>
</g>
<!-- F -->
<g id="node6" class="node">
<title>F</title>
<path fill="none" stroke="#000000" d="M266,-255C266,-255 110,-255 110,-255 104,-255 98,-249 98,-243 98,-243 98,-231 98,-231 98,-225 104,-219 110,-219 110,-219 266,-219 266,-219 272,-219 278,-225 278,-231 278,-231 278,-243 278,-243 278,-249 272,-255 266,-255"/>
<text text-anchor="middle" x="188" y="-240.3" font-family="Helvetica,sans-Serif" font-size="11.00" fill="#000000">4. Estimação principal</text>
<text text-anchor="middle" x="188" y="-227.1" font-family="Helvetica,sans-Serif" font-size="11.00" fill="#000000">(FE + tempo; interações)</text>
</g>
<!-- D&#45;&gt;F -->
<g id="edge5" class="edge">
<title>D&#45;&gt;F</title>
<path fill="none" stroke="#000000" d="M114.2247,-291.9551C126.7105,-282.6545 142.1086,-271.1844 155.602,-261.1332"/>
<polygon fill="#000000" stroke="#000000" points="157.7855,-263.871 163.7143,-255.0904 153.6039,-258.2573 157.7855,-263.871"/>
</g>
<!-- E&#45;&gt;F -->
<g id="edge6" class="edge">
<title>E&#45;&gt;F</title>
<path fill="none" stroke="#000000" d="M263.2809,-291.9551C250.5403,-282.6545 234.8279,-271.1844 221.0592,-261.1332"/>
<polygon fill="#000000" stroke="#000000" points="222.9219,-258.1596 212.7813,-255.0904 218.7945,-263.8134 222.9219,-258.1596"/>
</g>
<!-- G -->
<g id="node7" class="node">
<title>G</title>
<path fill="none" stroke="#000000" d="M266,-182C266,-182 110,-182 110,-182 104,-182 98,-176 98,-170 98,-170 98,-158 98,-158 98,-152 104,-146 110,-146 110,-146 266,-146 266,-146 272,-146 278,-152 278,-158 278,-158 278,-170 278,-170 278,-176 272,-182 266,-182"/>
<text text-anchor="middle" x="188" y="-160.7" font-family="Helvetica,sans-Serif" font-size="11.00" fill="#000000">5. Event&#45;study / Pré&#45;tendência</text>
</g>
<!-- F&#45;&gt;G -->
<g id="edge7" class="edge">
<title>F&#45;&gt;G</title>
<path fill="none" stroke="#000000" d="M188,-218.9551C188,-210.8828 188,-201.1764 188,-192.1817"/>
<polygon fill="#000000" stroke="#000000" points="191.5001,-192.0903 188,-182.0904 184.5001,-192.0904 191.5001,-192.0903"/>
</g>
<!-- H -->
<g id="node8" class="node">
<title>H</title>
<path fill="none" stroke="#000000" d="M266,-109C266,-109 110,-109 110,-109 104,-109 98,-103 98,-97 98,-97 98,-85 98,-85 98,-79 104,-73 110,-73 110,-73 266,-73 266,-73 272,-73 278,-79 278,-85 278,-85 278,-97 278,-97 278,-103 272,-109 266,-109"/>
<text text-anchor="middle" x="188" y="-94.3" font-family="Helvetica,sans-Serif" font-size="11.00" fill="#000000">6. Diagnósticos e Inferência</text>
<text text-anchor="middle" x="188" y="-81.1" font-family="Helvetica,sans-Serif" font-size="11.00" fill="#000000">(Hausman; wild bootstrap)</text>
</g>
<!-- G&#45;&gt;H -->
<g id="edge8" class="edge">
<title>G&#45;&gt;H</title>
<path fill="none" stroke="#000000" d="M188,-145.9551C188,-137.8828 188,-128.1764 188,-119.1817"/>
<polygon fill="#000000" stroke="#000000" points="191.5001,-119.0903 188,-109.0904 184.5001,-119.0904 191.5001,-119.0903"/>
</g>
<!-- I -->
<g id="node9" class="node">
<title>I</title>
<path fill="none" stroke="#000000" d="M272.752,-36C272.752,-36 103.248,-36 103.248,-36 97.248,-36 91.248,-30 91.248,-24 91.248,-24 91.248,-12 91.248,-12 91.248,-6 97.248,0 103.248,0 103.248,0 272.752,0 272.752,0 278.752,0 284.752,-6 284.752,-12 284.752,-12 284.752,-24 284.752,-24 284.752,-30 278.752,-36 272.752,-36"/>
<text text-anchor="middle" x="188" y="-21.3" font-family="Helvetica,sans-Serif" font-size="11.00" fill="#000000">7. Robustez</text>
<text text-anchor="middle" x="188" y="-8.1" font-family="Helvetica,sans-Serif" font-size="11.00" fill="#000000">(def. alternativas; subamostras; IFE)</text>
</g>
<!-- H&#45;&gt;I -->
<g id="edge9" class="edge">
<title>H&#45;&gt;I</title>
<path fill="none" stroke="#000000" d="M188,-72.9551C188,-64.8828 188,-55.1764 188,-46.1817"/>
<polygon fill="#000000" stroke="#000000" points="191.5001,-46.0903 188,-36.0904 184.5001,-46.0904 191.5001,-46.0903"/>
</g>
</g>
</svg>
