<?xml version="1.0" encoding="UTF-8" standalone="no"?>
<!DOCTYPE svg PUBLIC "-//W3C//DTD SVG 1.1//EN"
 "http://www.w3.org/Graphics/SVG/1.1/DTD/svg11.dtd">
<!-- Generated by graphviz version 2.40.1 (20161225.0304)
 -->
<!-- Title: fluxo Pages: 1 -->
<svg width="404pt" height="652pt"
 viewBox="0.00 0.00 403.58 651.80" xmlns="http://www.w3.org/2000/svg" xmlns:xlink="http://www.w3.org/1999/xlink">
<g id="graph0" class="graph" transform="scale(1 1) rotate(0) translate(4 647.8)">
<title>fluxo</title>
<polygon fill="#ffffff" stroke="transparent" points="-4,4 -4,-647.8 399.582,-647.8 399.582,4 -4,4"/>
<!-- A -->
<g id="node1" class="node">
<title>A</title>
<path fill="none" stroke="#000000" d="M279.582,-643.8C279.582,-643.8 123.582,-643.8 123.582,-643.8 117.582,-643.8 111.582,-637.8 111.582,-631.8 111.582,-631.8 111.582,-619.8 111.582,-619.8 111.582,-613.8 117.582,-607.8 123.582,-607.8 123.582,-607.8 279.582,-607.8 279.582,-607.8 285.582,-607.8 291.582,-613.8 291.582,-619.8 291.582,-619.8 291.582,-631.8 291.582,-631.8 291.582,-637.8 285.582,-643.8 279.582,-643.8"/>
<text text-anchor="middle" x="201.582" y="-628.8" font-family="Helvetica,sans-Serif" font-size="10.00" fill="#000000">1. Definição do tratamento</text>
<text text-anchor="middle" x="201.582" y="-616.8" font-family="Helvetica,sans-Serif" font-size="10.00" fill="#000000">(dummy; intensidade; regime)</text>
</g>
<!-- B -->
<g id="node2" class="node">
<title>B</title>
<path fill="none" stroke="#000000" d="M279.582,-570.8C279.582,-570.8 123.582,-570.8 123.582,-570.8 117.582,-570.8 111.582,-564.8 111.582,-558.8 111.582,-558.8 111.582,-546.8 111.582,-546.8 111.582,-540.8 117.582,-534.8 123.582,-534.8 123.582,-534.8 279.582,-534.8 279.582,-534.8 285.582,-534.8 291.582,-540.8 291.582,-546.8 291.582,-546.8 291.582,-558.8 291.582,-558.8 291.582,-564.8 285.582,-570.8 279.582,-570.8"/>
<text text-anchor="middle" x="201.582" y="-555.8" font-family="Helvetica,sans-Serif" font-size="10.00" fill="#000000">2. Preparação de dados</text>
<text text-anchor="middle" x="201.582" y="-543.8" font-family="Helvetica,sans-Serif" font-size="10.00" fill="#000000">(harmonização, metadados)</text>
</g>
<!-- A&#45;&gt;B -->
<g id="edge1" class="edge">
<title>A&#45;&gt;B</title>
<path fill="none" stroke="#000000" d="M201.582,-607.7551C201.582,-599.6828 201.582,-589.9764 201.582,-580.9817"/>
<polygon fill="#000000" stroke="#000000" points="205.0821,-580.8903 201.582,-570.8904 198.0821,-580.8904 205.0821,-580.8903"/>
</g>
<!-- C -->
<g id="node3" class="node">
<title>C</title>
<polygon fill="#ffffe0" stroke="#000000" points="201.582,-497.8 71.8228,-479.8 201.582,-461.8 331.3412,-479.8 201.582,-497.8"/>
<text text-anchor="middle" x="201.582" y="-476.8" font-family="Helvetica,sans-Serif" font-size="10.00" fill="#000000">3. Quantas unidades tratadas?</text>
</g>
<!-- B&#45;&gt;C -->
<g id="edge2" class="edge">
<title>B&#45;&gt;C</title>
<path fill="none" stroke="#000000" d="M201.582,-534.7551C201.582,-526.6828 201.582,-516.9764 201.582,-507.9817"/>
<polygon fill="#000000" stroke="#000000" points="205.0821,-507.8903 201.582,-497.8904 198.0821,-507.8904 205.0821,-507.8903"/>
</g>
<!-- D -->
<g id="node4" class="node">
<title>D</title>
<path fill="none" stroke="#000000" d="M185.2461,-409C185.2461,-409 11.9179,-409 11.9179,-409 5.9179,-409 -.0821,-403 -.0821,-397 -.0821,-397 -.0821,-377 -.0821,-377 -.0821,-371 5.9179,-365 11.9179,-365 11.9179,-365 185.2461,-365 185.2461,-365 191.2461,-365 197.2461,-371 197.2461,-377 197.2461,-377 197.2461,-397 197.2461,-397 197.2461,-403 191.2461,-409 185.2461,-409"/>
<text text-anchor="middle" x="98.582" y="-396" font-family="Helvetica,sans-Serif" font-size="10.00" fill="#000000">Muitos tratados</text>
<text text-anchor="middle" x="98.582" y="-384" font-family="Helvetica,sans-Serif" font-size="10.00" fill="#000000">DiD escalonado</text>
<text text-anchor="middle" x="98.582" y="-372" font-family="Helvetica,sans-Serif" font-size="10.00" fill="#000000">Sun &amp; Abraham; Callaway &amp; Sant’Anna</text>
</g>
<!-- C&#45;&gt;D -->
<g id="edge3" class="edge">
<title>C&#45;&gt;D</title>
<path fill="none" stroke="#000000" d="M184.1095,-464.0577C169.5759,-450.9634 148.4982,-431.9731 130.9043,-416.1215"/>
<polygon fill="#000000" stroke="#000000" points="132.8739,-413.185 123.1018,-409.0916 128.1884,-418.3856 132.8739,-413.185"/>
<text text-anchor="middle" x="179.4172" y="-431.2" font-family="Times,serif" font-size="14.00" fill="#000000">Muitos</text>
</g>
<!-- E -->
<g id="node5" class="node">
<title>E</title>
<path fill="none" stroke="#000000" d="M383.582,-405C383.582,-405 227.582,-405 227.582,-405 221.582,-405 215.582,-399 215.582,-393 215.582,-393 215.582,-381 215.582,-381 215.582,-375 221.582,-369 227.582,-369 227.582,-369 383.582,-369 383.582,-369 389.582,-369 395.582,-375 395.582,-381 395.582,-381 395.582,-393 395.582,-393 395.582,-399 389.582,-405 383.582,-405"/>
<text text-anchor="middle" x="305.582" y="-390" font-family="Helvetica,sans-Serif" font-size="10.00" fill="#000000">Poucos tratados</text>
<text text-anchor="middle" x="305.582" y="-378" font-family="Helvetica,sans-Serif" font-size="10.00" fill="#000000">Synthetic Control / AugSynth</text>
</g>
<!-- C&#45;&gt;E -->
<g id="edge4" class="edge">
<title>C&#45;&gt;E</title>
<path fill="none" stroke="#000000" d="M219.2242,-464.0577C235.248,-449.7595 259.1505,-428.4312 277.7488,-411.8358"/>
<polygon fill="#000000" stroke="#000000" points="280.2251,-414.317 285.3563,-405.0476 275.5646,-409.094 280.2251,-414.317"/>
<text text-anchor="middle" x="279.8029" y="-431.2" font-family="Times,serif" font-size="14.00" fill="#000000">Poucos</text>
</g>
<!-- F -->
<g id="node6" class="node">
<title>F</title>
<path fill="none" stroke="#000000" d="M279.582,-328C279.582,-328 123.582,-328 123.582,-328 117.582,-328 111.582,-322 111.582,-316 111.582,-316 111.582,-304 111.582,-304 111.582,-298 117.582,-292 123.582,-292 123.582,-292 279.582,-292 279.582,-292 285.582,-292 291.582,-298 291.582,-304 291.582,-304 291.582,-316 291.582,-316 291.582,-322 285.582,-328 279.582,-328"/>
<text text-anchor="middle" x="201.582" y="-313" font-family="Helvetica,sans-Serif" font-size="10.00" fill="#000000">4. Estimação principal</text>
<text text-anchor="middle" x="201.582" y="-301" font-family="Helvetica,sans-Serif" font-size="10.00" fill="#000000">(FE + tempo; interações)</text>
</g>
<!-- D&#45;&gt;F -->
<g id="edge5" class="edge">
<title>D&#45;&gt;F</title>
<path fill="none" stroke="#000000" d="M128.0977,-364.9349C140.8739,-355.3837 155.8724,-344.1713 168.9762,-334.3752"/>
<polygon fill="#000000" stroke="#000000" points="171.3576,-336.9649 177.2713,-328.174 167.1663,-331.3583 171.3576,-336.9649"/>
</g>
<!-- E&#45;&gt;F -->
<g id="edge6" class="edge">
<title>E&#45;&gt;F</title>
<path fill="none" stroke="#000000" d="M281.1986,-368.9469C267.2174,-358.5954 249.4838,-345.4658 234.3036,-334.2266"/>
<polygon fill="#000000" stroke="#000000" points="236.2926,-331.3443 226.173,-328.2068 232.1273,-336.9702 236.2926,-331.3443"/>
</g>
<!-- G -->
<g id="node7" class="node">
<title>G</title>
<path fill="none" stroke="#000000" d="M279.582,-255C279.582,-255 123.582,-255 123.582,-255 117.582,-255 111.582,-249 111.582,-243 111.582,-243 111.582,-231 111.582,-231 111.582,-225 117.582,-219 123.582,-219 123.582,-219 279.582,-219 279.582,-219 285.582,-219 291.582,-225 291.582,-231 291.582,-231 291.582,-243 291.582,-243 291.582,-249 285.582,-255 279.582,-255"/>
<text text-anchor="middle" x="201.582" y="-234" font-family="Helvetica,sans-Serif" font-size="10.00" fill="#000000">5. Event&#45;study / Pré&#45;tendência</text>
</g>
<!-- F&#45;&gt;G -->
<g id="edge7" class="edge">
<title>F&#45;&gt;G</title>
<path fill="none" stroke="#000000" d="M201.582,-291.9551C201.582,-283.8828 201.582,-274.1764 201.582,-265.1817"/>
<polygon fill="#000000" stroke="#000000" points="205.0821,-265.0903 201.582,-255.0904 198.0821,-265.0904 205.0821,-265.0903"/>
</g>
<!-- H -->
<g id="node8" class="node">
<title>H</title>
<path fill="none" stroke="#000000" d="M279.582,-182C279.582,-182 123.582,-182 123.582,-182 117.582,-182 111.582,-176 111.582,-170 111.582,-170 111.582,-158 111.582,-158 111.582,-152 117.582,-146 123.582,-146 123.582,-146 279.582,-146 279.582,-146 285.582,-146 291.582,-152 291.582,-158 291.582,-158 291.582,-170 291.582,-170 291.582,-176 285.582,-182 279.582,-182"/>
<text text-anchor="middle" x="201.582" y="-167" font-family="Helvetica,sans-Serif" font-size="10.00" fill="#000000">6. Diagnósticos &amp; Inferência</text>
<text text-anchor="middle" x="201.582" y="-155" font-family="Helvetica,sans-Serif" font-size="10.00" fill="#000000">(Hausman; wild bootstrap)</text>
</g>
<!-- G&#45;&gt;H -->
<g id="edge8" class="edge">
<title>G&#45;&gt;H</title>
<path fill="none" stroke="#000000" d="M201.582,-218.9551C201.582,-210.8828 201.582,-201.1764 201.582,-192.1817"/>
<polygon fill="#000000" stroke="#000000" points="205.0821,-192.0903 201.582,-182.0904 198.0821,-192.0904 205.0821,-192.0903"/>
</g>
<!-- I -->
<g id="node9" class="node">
<title>I</title>
<path fill="none" stroke="#000000" d="M279.582,-109C279.582,-109 123.582,-109 123.582,-109 117.582,-109 111.582,-103 111.582,-97 111.582,-97 111.582,-85 111.582,-85 111.582,-79 117.582,-73 123.582,-73 123.582,-73 279.582,-73 279.582,-73 285.582,-73 291.582,-79 291.582,-85 291.582,-85 291.582,-97 291.582,-97 291.582,-103 285.582,-109 279.582,-109"/>
<text text-anchor="middle" x="201.582" y="-94" font-family="Helvetica,sans-Serif" font-size="10.00" fill="#000000">7. Robustez</text>
<text text-anchor="middle" x="201.582" y="-82" font-family="Helvetica,sans-Serif" font-size="10.00" fill="#000000">(def. alternativas; subamostras; IFE)</text>
</g>
<!-- H&#45;&gt;I -->
<g id="edge9" class="edge">
<title>H&#45;&gt;I</title>
<path fill="none" stroke="#000000" d="M201.582,-145.9551C201.582,-137.8828 201.582,-128.1764 201.582,-119.1817"/>
<polygon fill="#000000" stroke="#000000" points="205.0821,-119.0903 201.582,-109.0904 198.0821,-119.0904 205.0821,-119.0903"/>
</g>
<!-- J -->
<g id="node10" class="node">
<title>J</title>
<path fill="none" stroke="#000000" d="M292.6624,-36C292.6624,-36 110.5016,-36 110.5016,-36 104.5016,-36 98.5016,-30 98.5016,-24 98.5016,-24 98.5016,-12 98.5016,-12 98.5016,-6 104.5016,0 110.5016,0 110.5016,0 292.6624,0 292.6624,0 298.6624,0 304.6624,-6 304.6624,-12 304.6624,-12 304.6624,-24 304.6624,-24 304.6624,-30 298.6624,-36 292.6624,-36"/>
<text text-anchor="middle" x="201.582" y="-21" font-family="Helvetica,sans-Serif" font-size="10.00" fill="#000000">8. Reprodutibilidade</text>
<text text-anchor="middle" x="201.582" y="-9" font-family="Helvetica,sans-Serif" font-size="10.00" fill="#000000">(preregistration; snapshot público; código)</text>
</g>
<!-- I&#45;&gt;J -->
<g id="edge10" class="edge">
<title>I&#45;&gt;J</title>
<path fill="none" stroke="#000000" d="M201.582,-72.9551C201.582,-64.8828 201.582,-55.1764 201.582,-46.1817"/>
<polygon fill="#000000" stroke="#000000" points="205.0821,-46.0903 201.582,-36.0904 198.0821,-46.0904 205.0821,-46.0903"/>
</g>
</g>
</svg>
