<?xml version="1.0" encoding="UTF-8" standalone="no"?>
<!DOCTYPE svg PUBLIC "-//W3C//DTD SVG 1.1//EN"
 "http://www.w3.org/Graphics/SVG/1.1/DTD/svg11.dtd">
<!-- Generated by graphviz version 2.40.1 (20161225.0304)
 -->
<!-- Title: fluxo_slide Pages: 1 -->
<svg width="224pt" height="332pt"
 viewBox="0.00 0.00 224.00 332.00" xmlns="http://www.w3.org/2000/svg" xmlns:xlink="http://www.w3.org/1999/xlink">
<g id="graph0" class="graph" transform="scale(1 1) rotate(0) translate(4 328)">
<title>fluxo_slide</title>
<polygon fill="#ffffff" stroke="transparent" points="-4,4 -4,-328 220,-328 220,4 -4,4"/>
<!-- A -->
<g id="node1" class="node">
<title>A</title>
<polygon fill="#6baed6" stroke="#000000" points="216,-324 0,-324 0,-288 216,-288 216,-324"/>
<text text-anchor="middle" x="108" y="-302.4" font-family="Helvetica,sans-Serif" font-size="12.00" fill="#ffffff">1. Definição do tratamento</text>
</g>
<!-- B -->
<g id="node2" class="node">
<title>B</title>
<polygon fill="#74c476" stroke="#000000" points="216,-252 0,-252 0,-216 216,-216 216,-252"/>
<text text-anchor="middle" x="108" y="-230.4" font-family="Helvetica,sans-Serif" font-size="12.00" fill="#ffffff">2. Preparação de dados</text>
</g>
<!-- A&#45;&gt;B -->
<g id="edge1" class="edge">
<title>A&#45;&gt;B</title>
<path fill="none" stroke="#3182bd" stroke-width="2" d="M108,-287.8314C108,-287.8314 108,-262.4133 108,-262.4133"/>
<polygon fill="#3182bd" stroke="#3182bd" stroke-width="2" points="111.5001,-262.4132 108,-252.4133 104.5001,-262.4133 111.5001,-262.4132"/>
</g>
<!-- C -->
<g id="node3" class="node">
<title>C</title>
<polygon fill="#fd8d3c" stroke="#000000" points="216,-180 0,-180 0,-144 216,-144 216,-180"/>
<text text-anchor="middle" x="108" y="-158.4" font-family="Helvetica,sans-Serif" font-size="12.00" fill="#ffffff">3. Estimação</text>
</g>
<!-- B&#45;&gt;C -->
<g id="edge2" class="edge">
<title>B&#45;&gt;C</title>
<path fill="none" stroke="#31a354" stroke-width="2" d="M108,-215.8314C108,-215.8314 108,-190.4133 108,-190.4133"/>
<polygon fill="#31a354" stroke="#31a354" stroke-width="2" points="111.5001,-190.4132 108,-180.4133 104.5001,-190.4133 111.5001,-190.4132"/>
</g>
<!-- D -->
<g id="node4" class="node">
<title>D</title>
<polygon fill="#9e9ac8" stroke="#000000" points="216,-108 0,-108 0,-72 216,-72 216,-108"/>
<text text-anchor="middle" x="108" y="-86.4" font-family="Helvetica,sans-Serif" font-size="12.00" fill="#ffffff">4. Diagnóstico</text>
</g>
<!-- C&#45;&gt;D -->
<g id="edge3" class="edge">
<title>C&#45;&gt;D</title>
<path fill="none" stroke="#e6550d" stroke-width="2" d="M108,-143.8314C108,-143.8314 108,-118.4133 108,-118.4133"/>
<polygon fill="#e6550d" stroke="#e6550d" stroke-width="2" points="111.5001,-118.4132 108,-108.4133 104.5001,-118.4133 111.5001,-118.4132"/>
</g>
<!-- E -->
<g id="node5" class="node">
<title>E</title>
<polygon fill="#fdd0a2" stroke="#000000" points="216,-36 0,-36 0,0 216,0 216,-36"/>
<text text-anchor="middle" x="108" y="-14.4" font-family="Helvetica,sans-Serif" font-size="12.00" fill="#000000">5. Reprodutibilidade</text>
</g>
<!-- D&#45;&gt;E -->
<g id="edge4" class="edge">
<title>D&#45;&gt;E</title>
<path fill="none" stroke="#756bb1" stroke-width="2" d="M108,-71.8314C108,-71.8314 108,-46.4133 108,-46.4133"/>
<polygon fill="#756bb1" stroke="#756bb1" stroke-width="2" points="111.5001,-46.4132 108,-36.4133 104.5001,-46.4133 111.5001,-46.4132"/>
</g>
</g>
</svg>

